<svg width="134" height="24" viewBox="0 0 134 24" fill="none" xmlns="http://www.w3.org/2000/svg">
<path d="M10.7664 18.9867C13.7953 18.9867 15.3923 17.6576 16.1633 16.6541C17.7329 14.5926 17.8705 11.3378 17.8705 9.27636C17.8705 6.99796 17.7879 4.28557 15.9155 2.25128C14.759 1.00358 12.9417 0 10.2707 0H2.72601C1.56952 0 0.936207 0.515353 0.660852 0.813717C0.0275356 1.51894 0 2.33265 0 3.03787V16.5727C0 17.6305 0.440568 18.2001 0.798529 18.4713C0.936207 18.5798 1.51445 18.9867 2.9463 18.9867H10.7664ZM3.63468 3.98721C3.63468 3.58035 3.7999 3.20062 4.02018 3.03787C4.268 2.84801 4.6535 2.84801 4.87378 2.84801H8.64614C9.94031 2.84801 11.675 3.09212 12.7765 4.23132C13.988 5.47902 14.1257 7.37769 14.1257 9.00512C14.1257 12.2329 13.6301 13.6433 13.162 14.3756C12.3359 15.7047 11.0142 16.1387 9.00411 16.1387H4.81871C4.48828 16.1387 4.13032 16.1387 3.8825 15.8675C3.60715 15.5691 3.63468 15.2165 3.63468 14.8368V3.98721Z" fill="#363740"/>
<path d="M20.7624 4.61106V7.0522H27.9492C28.4448 7.0522 29.0781 7.13358 29.5187 7.67605C29.8766 8.11003 29.9317 8.59826 29.9317 9.03225V10.0358H23.5986C22.8276 10.0358 21.8363 10.0901 20.9276 10.8767C19.8262 11.826 19.6885 13.1008 19.6885 14.3756C19.6885 15.4335 19.7711 17.2779 20.9552 18.2815C21.7812 18.9867 22.8 18.9867 23.5986 18.9867H30.565C31.2534 18.9867 32.052 18.9325 32.5751 18.4171C33.0983 17.9017 33.1534 17.088 33.1534 16.5727V9.11362C33.1534 7.51331 32.6853 6.34698 32.0795 5.72314C31.4186 5.04504 30.2897 4.61106 29.0506 4.61106H20.7624ZM29.9317 12.477V15.7861C29.9317 16.0031 29.9317 16.1929 29.7114 16.3828C29.4912 16.5456 29.1883 16.5456 28.9955 16.5456H24.5072C24.0942 16.5456 23.6812 16.3286 23.4609 16.1116C23.0754 15.7047 23.0203 14.9452 23.0203 14.5113C23.0203 13.4806 23.2681 13.1008 23.3783 12.9652C23.7362 12.5041 24.342 12.477 24.5623 12.477H29.9317Z" fill="#363740"/>
<path d="M35.3476 18.9867H38.5693V4.61106H35.3476V18.9867ZM38.5693 2.52252V0H35.3476V2.52252H38.5693Z" fill="#363740"/>
<path d="M40.7794 18.9867H44.0011V0H40.7794V18.9867Z" fill="#363740"/>
<path d="M60.6949 4.66531H57.4182L52.4618 15.6505L47.7807 4.61106H44.4489L50.9473 18.9325L48.7169 23.6249H51.9937L60.6949 4.66531Z" fill="#363740"/>
<path d="M85.3774 9.68322H81.7428V14.8639C81.7428 15.1622 81.7428 15.542 81.4399 15.8403C81.137 16.1387 80.8065 16.1387 80.4761 16.1387H75.7676C74.2256 16.1387 72.8763 15.7318 72.0778 14.1587C71.7749 13.5619 71.3068 12.26 71.3068 9.49335C71.3068 6.75384 71.7749 5.50614 72.1053 4.90942C72.8488 3.58035 74.2806 2.84801 76.3733 2.84801H84.9369V0H75.3545C73.5096 0 71.8851 0.406858 70.701 1.16633C67.8649 2.98362 67.562 6.4826 67.562 9.60185C67.562 12.26 67.7547 15.5691 70.0953 17.4949C70.9764 18.2272 72.4358 18.9867 74.5835 18.9867H82.7891C83.3398 18.9867 84.1659 18.824 84.6615 18.4171C85.0195 18.1187 85.3774 17.522 85.3774 16.5456V9.68322Z" fill="#363740"/>
<path d="M87.5682 18.9867H90.7899V10.8767C90.7899 9.79171 90.9276 8.78813 91.5333 8.05579C92.3043 7.1607 93.4333 7.0522 94.2869 7.0522H95.6361V4.61106H93.4608C92.3319 4.61106 90.4319 4.69243 89.0827 5.85875C87.8436 6.91658 87.5682 8.46265 87.5682 10.0358V18.9867Z" fill="#363740"/>
<path d="M103.579 4.44831C101.845 4.44831 99.2839 4.50256 97.6869 5.96725C96.0072 7.51331 95.8145 10.2257 95.8145 11.8531C95.8145 13.3178 95.9521 16.0302 97.6869 17.6034C99.2839 19.041 101.845 19.1494 103.579 19.1494C105.259 19.1494 107.903 19.041 109.472 17.6034C110.546 16.5998 111.344 14.7825 111.344 11.7446C111.344 10.2257 111.152 7.51331 109.472 5.96725C107.875 4.50256 105.314 4.44831 103.579 4.44831ZM99.1463 11.826C99.1463 10.9038 99.1463 9.05937 100.055 8.02866C100.964 6.99796 102.533 6.88946 103.579 6.88946C104.736 6.88946 106.14 6.99796 107.076 8.02866C108.095 9.14074 108.013 10.7682 108.013 11.826C108.013 13.0737 108.013 14.457 107.049 15.5148C106.085 16.5727 104.791 16.7083 103.579 16.7083C102.423 16.7083 101.019 16.5727 100.082 15.5148C99.1738 14.4841 99.1463 13.0195 99.1463 11.826Z" fill="#363740"/>
<path d="M114.489 4.61106H111.405L114.875 17.1965C115.068 17.956 115.426 19.1494 117.381 19.1494C119.06 19.1494 119.666 18.2815 119.886 17.5491L122.42 8.54402C122.447 8.43552 122.502 8.08291 122.64 8.08291C122.778 8.08291 122.833 8.43552 122.86 8.54402L125.393 17.5491C125.806 19.0138 127.128 19.1494 127.899 19.1494C128.973 19.1494 129.937 18.8782 130.405 17.1965L133.874 4.61106H130.79L128.009 15.2436C127.954 15.4335 127.844 15.6776 127.706 15.6776C127.569 15.6776 127.486 15.3792 127.459 15.2707L124.76 5.77738C124.43 4.58393 123.301 4.44831 122.64 4.44831C122.089 4.44831 120.878 4.50256 120.52 5.77738L117.849 15.2707C117.821 15.3521 117.739 15.6776 117.573 15.6776C117.436 15.6776 117.325 15.3792 117.298 15.2436L114.489 4.61106Z" fill="#363740"/>
</svg>
